<svg width="170" height="50" viewBox="0 0 170 50" fill="none" xmlns="http://www.w3.org/2000/svg">
<path d="M163.137 50H6.88721C3.38721 50 0.637207 47.25 0.637207 43.75V6.25C0.637207 2.75 3.38721 0 6.88721 0H163.137C166.637 0 169.387 2.75 169.387 6.25V43.75C169.387 47.25 166.637 50 163.137 50Z" fill="black"/>
<path fill-rule="evenodd" clip-rule="evenodd" d="M59.0122 15.25C59.6372 14.625 59.8872 13.75 59.8872 12.75L59.8872 12.75V12.25H56.2622V13.25H59.0122C59.0122 13.875 58.7622 14.375 58.3872 14.75C57.7622 15.375 57.1372 15.625 56.2622 15.625C55.5122 15.625 54.8872 15.25 54.2622 14.75C53.6372 14.25 53.3872 13.5 53.3872 12.625C53.3872 11.75 53.6372 11 54.2622 10.5C54.7622 9.875 55.5122 9.625 56.2622 9.625C57.1372 9.625 57.7622 9.875 58.2622 10.5L58.8872 9.875C58.6372 9.5 58.2622 9.25 57.7622 9C57.2622 8.75 56.7622 8.625 56.2622 8.625C55.1372 8.625 54.2622 9 53.5122 9.75C52.7622 10.5 52.3872 11.375 52.3872 12.5C52.3872 13.625 52.7622 14.5 53.5122 15.25C54.2622 16 55.1372 16.375 56.2622 16.375C57.3872 16.375 58.2622 16 59.0122 15.25ZM62.2622 9.625H65.6372V8.75H61.2622V16.25H65.6372V15.25H62.2622V12.875H65.3872V12H62.2622V9.625ZM69.7622 16.25H68.7622V9.625H66.6372V8.75H71.8872V9.625H69.7622V16.25ZM75.5122 8.75V16.25H76.5122V8.75H75.5122ZM80.6372 16.25H79.7622V9.625H77.6372V8.75H82.7622V9.625H80.6372V16.25ZM89.8872 16.375C91.0122 16.375 91.8872 16 92.6372 15.25C93.3872 14.5 93.7622 13.625 93.7622 12.5C93.7622 11.375 93.3872 10.5 92.6372 9.75C91.8872 9 91.0122 8.625 89.8872 8.625C88.7622 8.625 87.8872 9 87.1372 9.75C86.3872 10.5 86.0122 11.375 86.0122 12.5C86.0122 13.625 86.3872 14.5 87.1372 15.25C87.8872 16 88.7622 16.375 89.8872 16.375ZM87.8872 14.625C88.3872 15.125 89.1372 15.5 89.8872 15.5C90.6372 15.5 91.3872 15.25 91.8872 14.625C92.3872 14.125 92.7622 13.375 92.7622 12.5C92.7622 11.625 92.5122 10.875 91.8872 10.375C91.3872 9.875 90.6372 9.5 89.8872 9.5C89.1372 9.5 88.3872 9.75 87.8872 10.375C87.3872 10.875 87.0122 11.625 87.0122 12.5C87.0122 13.375 87.2622 14.125 87.8872 14.625ZM95.1372 8.75V16.25H96.0122V10.125L99.8872 16.25H100.887V8.75H99.8872V14.625L96.2622 8.75H95.1372Z" fill="white"/>
<path d="M59.8872 12.75L59.8425 12.6606L59.7872 12.6882V12.75H59.8872ZM59.0122 15.25L59.0829 15.3207L59.0122 15.25ZM59.8872 12.75L59.9319 12.8394L59.9872 12.8118V12.75H59.8872ZM59.8872 12.25H59.9872V12.15H59.8872V12.25ZM56.2622 12.25V12.15H56.1622V12.25H56.2622ZM56.2622 13.25H56.1622V13.35H56.2622V13.25ZM59.0122 13.25H59.1122V13.15H59.0122V13.25ZM58.3872 14.75L58.4579 14.8207L58.4579 14.8207L58.3872 14.75ZM54.2622 14.75L54.1997 14.8281H54.1997L54.2622 14.75ZM54.2622 10.5L54.3247 10.5781L54.3334 10.5711L54.3403 10.5625L54.2622 10.5ZM58.2622 10.5L58.1841 10.5625L58.2539 10.6497L58.3329 10.5707L58.2622 10.5ZM58.8872 9.875L58.9579 9.94571L59.0159 9.88774L58.9704 9.81953L58.8872 9.875ZM57.7622 9L57.8069 8.91056L57.8069 8.91056L57.7622 9ZM53.5122 9.75L53.5829 9.82071L53.5829 9.82071L53.5122 9.75ZM53.5122 15.25L53.4415 15.3207H53.4415L53.5122 15.25ZM65.6372 9.625V9.725H65.7372V9.625H65.6372ZM62.2622 9.625V9.525H62.1622V9.625H62.2622ZM65.6372 8.75H65.7372V8.65H65.6372V8.75ZM61.2622 8.75V8.65H61.1622V8.75H61.2622ZM61.2622 16.25H61.1622V16.35H61.2622V16.25ZM65.6372 16.25V16.35H65.7372V16.25H65.6372ZM65.6372 15.25H65.7372V15.15H65.6372V15.25ZM62.2622 15.25H62.1622V15.35H62.2622V15.25ZM62.2622 12.875V12.775H62.1622V12.875H62.2622ZM65.3872 12.875V12.975H65.4872V12.875H65.3872ZM65.3872 12H65.4872V11.9H65.3872V12ZM62.2622 12H62.1622V12.1H62.2622V12ZM68.7622 16.25H68.6622V16.35H68.7622V16.25ZM69.7622 16.25V16.35H69.8622V16.25H69.7622ZM68.7622 9.625H68.8622V9.525H68.7622V9.625ZM66.6372 9.625H66.5372V9.725H66.6372V9.625ZM66.6372 8.75V8.65H66.5372V8.75H66.6372ZM71.8872 8.75H71.9872V8.65H71.8872V8.75ZM71.8872 9.625V9.725H71.9872V9.625H71.8872ZM69.7622 9.625V9.525H69.6622V9.625H69.7622ZM75.5122 16.25H75.4122V16.35H75.5122V16.25ZM75.5122 8.75V8.65H75.4122V8.75H75.5122ZM76.5122 16.25V16.35H76.6122V16.25H76.5122ZM76.5122 8.75H76.6122V8.65H76.5122V8.75ZM79.7622 16.25H79.6622V16.35H79.7622V16.25ZM80.6372 16.25V16.35H80.7372V16.25H80.6372ZM79.7622 9.625H79.8622V9.525H79.7622V9.625ZM77.6372 9.625H77.5372V9.725H77.6372V9.625ZM77.6372 8.75V8.65H77.5372V8.75H77.6372ZM82.7622 8.75H82.8622V8.65H82.7622V8.75ZM82.7622 9.625V9.725H82.8622V9.625H82.7622ZM80.6372 9.625V9.525H80.5372V9.625H80.6372ZM92.6372 15.25L92.5665 15.1793L92.5665 15.1793L92.6372 15.25ZM92.6372 9.75L92.5665 9.82071L92.5665 9.82071L92.6372 9.75ZM87.1372 9.75L87.2079 9.82071V9.82071L87.1372 9.75ZM87.1372 15.25L87.2079 15.1793V15.1793L87.1372 15.25ZM87.8872 14.625L87.9584 14.5539L87.9497 14.5469L87.8872 14.625ZM91.8872 14.625L91.8161 14.5539L91.8091 14.5625L91.8872 14.625ZM91.8872 10.375L91.8161 10.4461L91.8247 10.4531L91.8872 10.375ZM87.8872 10.375L87.9584 10.4461L87.9653 10.4375L87.8872 10.375ZM95.1372 16.25H95.0372V16.35H95.1372V16.25ZM95.1372 8.75V8.65H95.0372V8.75H95.1372ZM96.0122 16.25V16.35H96.1122V16.25H96.0122ZM96.0122 10.125L96.0967 10.0715L95.9122 9.7799V10.125H96.0122ZM99.8872 16.25L99.8027 16.3035L99.8322 16.35H99.8872V16.25ZM100.887 16.25V16.35H100.987V16.25H100.887ZM100.887 8.75H100.987V8.65H100.887V8.75ZM99.8872 8.75V8.65H99.7872V8.75H99.8872ZM99.8872 14.625L99.8021 14.6775L99.9872 14.9775V14.625H99.8872ZM96.2622 8.75L96.3473 8.69749L96.318 8.65H96.2622V8.75ZM59.7872 12.75C59.7872 13.7346 59.5411 14.5797 58.9415 15.1793L59.0829 15.3207C59.7333 14.6703 59.9872 13.7654 59.9872 12.75H59.7872ZM59.8425 12.6606L59.8425 12.6606L59.9319 12.8394L59.9319 12.8394L59.8425 12.6606ZM59.7872 12.25V12.75H59.9872V12.25H59.7872ZM56.2622 12.35H59.8872V12.15H56.2622V12.35ZM56.3622 13.25V12.25H56.1622V13.25H56.3622ZM59.0122 13.15H56.2622V13.35H59.0122V13.15ZM58.4579 14.8207C58.8496 14.429 59.1122 13.9043 59.1122 13.25H58.9122C58.9122 13.8457 58.6748 14.321 58.3165 14.6793L58.4579 14.8207ZM56.2622 15.725C56.7095 15.725 57.0979 15.6611 57.4563 15.5144C57.8148 15.3678 58.1381 15.1405 58.4579 14.8207L58.3165 14.6793C58.0113 14.9845 57.7096 15.1947 57.3806 15.3293C57.0515 15.4639 56.69 15.525 56.2622 15.525V15.725ZM54.1997 14.8281C54.8289 15.3314 55.4767 15.725 56.2622 15.725V15.525C55.5477 15.525 54.9455 15.1686 54.3247 14.6719L54.1997 14.8281ZM53.2872 12.625C53.2872 13.5184 53.543 14.3027 54.1997 14.8281L54.3247 14.6719C53.7314 14.1973 53.4872 13.4816 53.4872 12.625H53.2872ZM54.1997 10.4219C53.543 10.9473 53.2872 11.7316 53.2872 12.625H53.4872C53.4872 11.7684 53.7314 11.0527 54.3247 10.5781L54.1997 10.4219ZM56.2622 9.525C55.4912 9.525 54.7083 9.78235 54.1841 10.4375L54.3403 10.5625C54.8161 9.96766 55.5332 9.725 56.2622 9.725V9.525ZM58.3403 10.4375C57.8175 9.78405 57.1609 9.525 56.2622 9.525V9.725C57.1135 9.725 57.7069 9.96595 58.1841 10.5625L58.3403 10.4375ZM58.8165 9.80429L58.1915 10.4293L58.3329 10.5707L58.9579 9.94571L58.8165 9.80429ZM57.7175 9.08944C58.2132 9.33731 58.5688 9.57772 58.804 9.93047L58.9704 9.81953C58.7056 9.42228 58.3112 9.16269 57.8069 8.91056L57.7175 9.08944ZM56.2622 8.725C56.7449 8.725 57.2297 8.84556 57.7175 9.08944L57.8069 8.91056C57.2947 8.65444 56.7795 8.525 56.2622 8.525V8.725ZM53.5829 9.82071C54.3141 9.0895 55.1637 8.725 56.2622 8.725V8.525C55.1107 8.525 54.2103 8.9105 53.4415 9.67929L53.5829 9.82071ZM52.4872 12.5C52.4872 11.4015 52.8517 10.5519 53.5829 9.82071L53.4415 9.67929C52.6727 10.4481 52.2872 11.3485 52.2872 12.5H52.4872ZM53.5829 15.1793C52.8517 14.4481 52.4872 13.5985 52.4872 12.5H52.2872C52.2872 13.6515 52.6727 14.5519 53.4415 15.3207L53.5829 15.1793ZM56.2622 16.275C55.1637 16.275 54.3141 15.9105 53.5829 15.1793L53.4415 15.3207C54.2103 16.0895 55.1107 16.475 56.2622 16.475V16.275ZM58.9415 15.1793C58.2103 15.9105 57.3607 16.275 56.2622 16.275V16.475C57.4137 16.475 58.3141 16.0895 59.0829 15.3207L58.9415 15.1793ZM65.6372 9.525H62.2622V9.725H65.6372V9.525ZM65.5372 8.75V9.625H65.7372V8.75H65.5372ZM61.2622 8.85H65.6372V8.65H61.2622V8.85ZM61.3622 16.25V8.75H61.1622V16.25H61.3622ZM65.6372 16.15H61.2622V16.35H65.6372V16.15ZM65.5372 15.25V16.25H65.7372V15.25H65.5372ZM62.2622 15.35H65.6372V15.15H62.2622V15.35ZM62.1622 12.875V15.25H62.3622V12.875H62.1622ZM65.3872 12.775H62.2622V12.975H65.3872V12.775ZM65.2872 12V12.875H65.4872V12H65.2872ZM62.2622 12.1H65.3872V11.9H62.2622V12.1ZM62.1622 9.625V12H62.3622V9.625H62.1622ZM68.7622 16.35H69.7622V16.15H68.7622V16.35ZM68.6622 9.625V16.25H68.8622V9.625H68.6622ZM66.6372 9.725H68.7622V9.525H66.6372V9.725ZM66.5372 8.75V9.625H66.7372V8.75H66.5372ZM71.8872 8.65H66.6372V8.85H71.8872V8.65ZM71.9872 9.625V8.75H71.7872V9.625H71.9872ZM69.7622 9.725H71.8872V9.525H69.7622V9.725ZM69.8622 16.25V9.625H69.6622V16.25H69.8622ZM75.6122 16.25V8.75H75.4122V16.25H75.6122ZM76.5122 16.15H75.5122V16.35H76.5122V16.15ZM76.4122 8.75V16.25H76.6122V8.75H76.4122ZM75.5122 8.85H76.5122V8.65H75.5122V8.85ZM79.7622 16.35H80.6372V16.15H79.7622V16.35ZM79.6622 9.625V16.25H79.8622V9.625H79.6622ZM77.6372 9.725H79.7622V9.525H77.6372V9.725ZM77.5372 8.75V9.625H77.7372V8.75H77.5372ZM82.7622 8.65H77.6372V8.85H82.7622V8.65ZM82.8622 9.625V8.75H82.6622V9.625H82.8622ZM80.6372 9.725H82.7622V9.525H80.6372V9.725ZM80.7372 16.25V9.625H80.5372V16.25H80.7372ZM92.5665 15.1793C91.8353 15.9105 90.9857 16.275 89.8872 16.275V16.475C91.0387 16.475 91.9391 16.0895 92.7079 15.3207L92.5665 15.1793ZM93.6622 12.5C93.6622 13.5985 93.2977 14.4481 92.5665 15.1793L92.7079 15.3207C93.4767 14.5519 93.8622 13.6515 93.8622 12.5H93.6622ZM92.5665 9.82071C93.2977 10.5519 93.6622 11.4015 93.6622 12.5H93.8622C93.8622 11.3485 93.4767 10.4481 92.7079 9.67929L92.5665 9.82071ZM89.8872 8.725C90.9857 8.725 91.8353 9.0895 92.5665 9.82071L92.7079 9.67929C91.9391 8.9105 91.0387 8.525 89.8872 8.525V8.725ZM87.2079 9.82071C87.9391 9.0895 88.7887 8.725 89.8872 8.725V8.525C88.7358 8.525 87.8353 8.9105 87.0665 9.67929L87.2079 9.82071ZM86.1122 12.5C86.1122 11.4015 86.4767 10.5519 87.2079 9.82071L87.0665 9.67929C86.2977 10.4481 85.9122 11.3485 85.9122 12.5H86.1122ZM87.2079 15.1793C86.4767 14.4481 86.1122 13.5985 86.1122 12.5H85.9122C85.9122 13.6515 86.2977 14.5519 87.0665 15.3207L87.2079 15.1793ZM89.8872 16.275C88.7887 16.275 87.9391 15.9105 87.2079 15.1793L87.0665 15.3207C87.8353 16.0895 88.7357 16.475 89.8872 16.475V16.275ZM89.8872 15.4C89.1684 15.4 88.4428 15.0391 87.9579 14.5543L87.8165 14.6957C88.3317 15.2109 89.106 15.6 89.8872 15.6V15.4ZM91.8091 14.5625C91.3333 15.1573 90.6162 15.4 89.8872 15.4V15.6C90.6582 15.6 91.4411 15.3427 91.9653 14.6875L91.8091 14.5625ZM92.6622 12.5C92.6622 13.346 92.2996 14.0712 91.8165 14.5543L91.9579 14.6957C92.4749 14.1788 92.8622 13.404 92.8622 12.5H92.6622ZM91.8247 10.4531C92.418 10.9277 92.6622 11.6434 92.6622 12.5H92.8622C92.8622 11.6066 92.6064 10.8223 91.9497 10.2969L91.8247 10.4531ZM89.8872 9.6C90.606 9.6 91.3316 9.96086 91.8165 10.4457L91.9579 10.3043C91.4428 9.78914 90.6684 9.4 89.8872 9.4V9.6ZM87.9653 10.4375C88.4412 9.84266 89.1582 9.6 89.8872 9.6V9.4C89.1162 9.4 88.3333 9.65735 87.8091 10.3125L87.9653 10.4375ZM87.1122 12.5C87.1122 11.654 87.4749 10.9288 87.9579 10.4457L87.8165 10.3043C87.2996 10.8212 86.9122 11.596 86.9122 12.5H87.1122ZM87.9497 14.5469C87.3564 14.0723 87.1122 13.3566 87.1122 12.5H86.9122C86.9122 13.3934 87.168 14.1777 87.8247 14.7031L87.9497 14.5469ZM95.2372 16.25V8.75H95.0372V16.25H95.2372ZM96.0122 16.15H95.1372V16.35H96.0122V16.15ZM95.9122 10.125V16.25H96.1122V10.125H95.9122ZM99.9717 16.1965L96.0967 10.0715L95.9277 10.1785L99.8027 16.3035L99.9717 16.1965ZM100.887 16.15H99.8872V16.35H100.887V16.15ZM100.787 8.75V16.25H100.987V8.75H100.787ZM99.8872 8.85H100.887V8.65H99.8872V8.85ZM99.9872 14.625V8.75H99.7872V14.625H99.9872ZM96.1771 8.80251L99.8021 14.6775L99.9723 14.5725L96.3473 8.69749L96.1771 8.80251ZM95.1372 8.85H96.2622V8.65H95.1372V8.85Z" fill="white"/>
<path fill-rule="evenodd" clip-rule="evenodd" d="M60.2622 28.875V31.125H65.6372C65.5122 32.375 65.0122 33.375 64.3872 34C63.6372 34.75 62.3872 35.625 60.2622 35.625C56.8872 35.625 54.3872 33 54.3872 29.625C54.3872 26.25 57.0122 23.625 60.2622 23.625C62.0122 23.625 63.3872 24.375 64.3872 25.25L66.0122 23.625C64.6372 22.375 62.8872 21.375 60.3872 21.375C55.8872 21.375 52.0122 25.125 52.0122 29.625C52.0122 34.125 55.8872 37.875 60.3872 37.875C62.8872 37.875 64.6372 37.125 66.1372 35.5C67.6372 34 68.1372 31.875 68.1372 30.25C68.1372 29.75 68.1372 29.25 68.0122 28.875L60.2622 28.875ZM74.1372 27.25C71.1372 27.25 68.7622 29.5 68.7622 32.625C68.7622 35.625 71.1372 38 74.1372 38C77.1372 38 79.5122 35.75 79.5122 32.625C79.5122 29.375 77.1372 27.25 74.1372 27.25ZM80.3872 32.625C80.3872 29.5 82.7622 27.25 85.7622 27.25C88.7622 27.25 91.1372 29.375 91.1372 32.625C91.1372 35.75 88.7622 38 85.7622 38C82.7622 38 80.3872 35.625 80.3872 32.625ZM82.7622 32.5C82.7622 34.375 84.1372 35.75 85.7622 35.75C87.3872 35.75 88.7622 34.375 88.7622 32.5C88.7622 30.5 87.3872 29.25 85.7622 29.25C84.1372 29.25 82.7622 30.625 82.7622 32.5ZM71.1372 32.5C71.1372 34.375 72.5122 35.75 74.1372 35.75C75.7622 35.75 77.1372 34.375 77.1372 32.5C77.1372 30.5 75.7622 29.25 74.1372 29.25C72.5122 29.25 71.1372 30.625 71.1372 32.5ZM112.512 27.25C115.262 27.25 116.512 29.375 117.012 30.625L117.262 31.25L110.137 34.25C110.762 35.375 111.512 35.875 112.762 35.875C114.012 35.875 114.762 35.25 115.387 34.375L117.137 35.625C116.637 36.5 115.137 38 112.762 38C109.762 38 107.512 35.625 107.512 32.625C107.512 29.375 109.762 27.25 112.512 27.25ZM109.762 32.375C109.762 30.375 111.387 29.25 112.512 29.25C113.387 29.25 114.262 29.75 114.512 30.375L109.762 32.375ZM106.262 37.5H103.887V21.875H106.262V37.5ZM100.137 28.375C99.5122 27.75 98.5122 27.125 97.2622 27.125C94.6372 27.125 92.1372 29.5 92.1372 32.5C92.1372 35.5 94.5122 37.75 97.2622 37.75C98.5122 37.75 99.5122 37.125 100.012 36.5H100.137V37.25C100.137 39.25 99.0122 40.375 97.2622 40.375C95.8872 40.375 94.8872 39.375 94.6372 38.5L92.6372 39.375C93.2622 40.75 94.7622 42.5 97.3872 42.5C100.137 42.5 102.387 40.875 102.387 37V27.5H100.137V28.375ZM94.3872 32.5C94.3872 34.375 95.7622 35.75 97.3872 35.75C99.0122 35.75 100.262 34.375 100.262 32.5C100.262 30.625 99.0122 29.25 97.3872 29.25C95.7622 29.25 94.3872 30.625 94.3872 32.5ZM127.887 21.875H122.262V37.5H124.637V31.625H127.887C130.512 31.625 133.012 29.75 133.012 26.75C133.012 23.75 130.512 21.875 127.887 21.875ZM124.637 29.375H128.012C129.637 29.375 130.637 28 130.762 26.625C130.762 25.5 129.762 24 128.012 24H124.637V29.375ZM142.387 27.125C140.637 27.125 138.887 27.875 138.262 29.5L140.387 30.375C140.887 29.5 141.637 29.25 142.512 29.25C143.762 29.25 144.887 30 145.012 31.25V31.375C144.637 31.125 143.637 30.75 142.637 30.75C140.387 30.75 138.137 32 138.137 34.25C138.137 36.375 140.012 37.75 142.012 37.75C143.637 37.75 144.387 37 145.012 36.25H145.137V37.5H147.387V31.5C147.137 28.75 145.012 27.125 142.387 27.125ZM140.262 34.375C140.262 35.375 141.387 35.75 142.137 35.75C143.387 35.75 144.637 34.75 144.887 33.25C144.824 33.2248 144.763 33.1997 144.702 33.1748L144.701 33.1745C144.156 32.952 143.661 32.75 142.762 32.75C141.637 32.75 140.262 33.125 140.262 34.375ZM155.262 27.5L152.637 34.25H152.512L149.762 27.5H147.262L151.387 37L149.012 42.25H151.387L157.762 27.5H155.262ZM136.637 37.5H134.262V21.875H136.637V37.5Z" fill="white"/>
<path d="M13.6372 9.375C13.2622 9.75 13.1372 10.375 13.1372 11.125V38.75C13.1372 39.5 13.3872 40.125 13.7622 40.5L13.8872 40.625L29.3872 25.125V24.875L13.6372 9.375Z" fill="url(#paint0_linear)"/>
<path d="M34.3872 30.375L29.2622 25.25V24.875L34.3872 19.75L34.5122 19.875L40.6372 23.375C42.3872 24.375 42.3872 26 40.6372 27L34.3872 30.375Z" fill="url(#paint1_linear)"/>
<path d="M34.5122 30.25L29.2622 25L13.6372 40.625C14.2622 41.25 15.1372 41.25 16.2622 40.75L34.5122 30.25Z" fill="url(#paint2_linear)"/>
<path d="M34.5122 19.75L16.2622 9.37502C15.1372 8.75002 14.2622 8.87502 13.6372 9.50002L29.2622 25L34.5122 19.75H34.5122Z" fill="url(#paint3_linear)"/>
<path opacity="0.2" d="M34.3872 30.125L16.2622 40.375C15.2622 41 14.3872 40.875 13.7622 40.375L13.6372 40.5L13.7622 40.625C14.3872 41.125 15.2622 41.25 16.2622 40.625L34.3872 30.125Z" fill="black"/>
<path opacity="0.12" fill-rule="evenodd" clip-rule="evenodd" d="M34.3872 30.125L40.6372 26.625C41.3872 26.125 41.8872 25.625 41.8872 25C41.8872 25.625 41.5122 26.25 40.6372 26.75L34.5122 30.25L34.3872 30.125ZM13.1372 38.625C13.1372 38.8021 13.1442 38.9722 13.1598 39.1337C13.145 39.0101 13.1372 38.882 13.1372 38.75V38.625ZM13.1598 39.1337C13.2203 39.6392 13.3991 40.0685 13.6494 40.375L13.1598 39.1337ZM13.6494 40.375H13.7622V40.5C13.7232 40.461 13.6855 40.4193 13.6494 40.375Z" fill="black"/>
<path opacity="0.25" d="M16.2622 9.50009L40.6372 23.3751C41.3872 23.8751 41.8872 24.3751 41.8872 25.0001C41.8872 24.3751 41.5122 23.7501 40.6372 23.2501L16.2622 9.37509C14.5122 8.37509 13.1372 9.12509 13.1372 11.1251V11.2501C13.1372 9.37509 14.5122 8.50009 16.2622 9.50009Z" fill="white"/>
<defs>
<linearGradient id="paint0_linear" x1="33.3414" y1="21.4406" x2="8.50626" y2="14.7256" gradientUnits="userSpaceOnUse">
<stop stop-color="#00A0FF"/>
<stop offset="0.007" stop-color="#00A1FF"/>
<stop offset="0.26" stop-color="#00BEFF"/>
<stop offset="0.512" stop-color="#00D2FF"/>
<stop offset="0.76" stop-color="#00DFFF"/>
<stop offset="1" stop-color="#00E3FF"/>
</linearGradient>
<linearGradient id="paint1_linear" x1="42.9297" y1="14.8341" x2="12.6835" y2="14.8341" gradientUnits="userSpaceOnUse">
<stop stop-color="#FFE000"/>
<stop offset="0.409" stop-color="#FFBD00"/>
<stop offset="0.775" stop-color="#FFA500"/>
<stop offset="1" stop-color="#FF9C00"/>
</linearGradient>
<linearGradient id="paint2_linear" x1="50.101" y1="13.6525" x2="30.1445" y2="-19.8524" gradientUnits="userSpaceOnUse">
<stop stop-color="#FF3A44"/>
<stop offset="1" stop-color="#C31162"/>
</linearGradient>
<linearGradient id="paint3_linear" x1="18.0271" y1="57.1594" x2="26.8687" y2="42.1766" gradientUnits="userSpaceOnUse">
<stop stop-color="#32A071"/>
<stop offset="0.069" stop-color="#2DA771"/>
<stop offset="0.476" stop-color="#15CF74"/>
<stop offset="0.801" stop-color="#06E775"/>
<stop offset="1" stop-color="#00F076"/>
</linearGradient>
</defs>
</svg>
