<svg xmlns="http://www.w3.org/2000/svg" width="99.076" height="61.507" viewBox="0 0 99.076 61.507"><defs><style>.a{fill:#113e82;}.b{fill:#f2d399;}.c{fill:#f2a007;}</style></defs><g transform="translate(0 19.664)"><path class="a" d="M-338.833,316.772l-5.786,17.593-4.375-.007-3.854-11.925-4.016,11.913-4.35-.007-5.756-17.611,4.224.007,3.954,12.378,4.168-12.365,3.772.006,4,12.478,4.118-12.466Z" transform="translate(366.971 -315.742)"/><path class="a" d="M-289.267,333.689l-10.234-.016a3.185,3.185,0,0,0,1.3,1.989,4.33,4.33,0,0,0,2.564.733,5.2,5.2,0,0,0,1.874-.311,4.54,4.54,0,0,0,1.523-.991l2.084,2.266a7.013,7.013,0,0,1-5.586,2.179,8.825,8.825,0,0,1-4.047-.9,6.539,6.539,0,0,1-2.712-2.481,6.823,6.823,0,0,1-.95-3.6,6.916,6.916,0,0,1,.949-3.582,6.607,6.607,0,0,1,2.594-2.486,7.606,7.606,0,0,1,3.685-.887,7.554,7.554,0,0,1,3.595.86,6.247,6.247,0,0,1,2.523,2.456,7.316,7.316,0,0,1,.912,3.71Q-289.19,332.709-289.267,333.689Zm-9.171-4.364a3.208,3.208,0,0,0-1.109,2.06l6.663.01a3.243,3.243,0,0,0-1.1-2.051,3.31,3.31,0,0,0-2.211-.77A3.378,3.378,0,0,0-298.438,329.325Z" transform="translate(331.543 -320.693)"/><path class="a" d="M-253.02,320.953a5.984,5.984,0,0,1,1.54,4.478l-.012,7.745-3.923-.006.011-7.141a3.528,3.528,0,0,0-.7-2.4,2.582,2.582,0,0,0-2.035-.8,3.122,3.122,0,0,0-2.365.914,3.8,3.8,0,0,0-.885,2.727l-.01,6.689-3.923-.006.029-18.658,3.923.006-.01,6.538a5.215,5.215,0,0,1,1.888-1.191,6.821,6.821,0,0,1,2.415-.411A5.567,5.567,0,0,1-253.02,320.953Z" transform="translate(310.281 -314.497)"/><path class="a" d="M-216.1,325.263a6.1,6.1,0,0,1,1.788,4.811l-.013,8.225-3.911-.006,0-1.795q-1.182,2.008-4.4,2a6.825,6.825,0,0,1-2.879-.567,4.291,4.291,0,0,1-1.859-1.557,4.041,4.041,0,0,1-.64-2.251,3.754,3.754,0,0,1,1.518-3.159,7.714,7.714,0,0,1,4.677-1.145l3.322.005a2.665,2.665,0,0,0-.827-2.1,3.661,3.661,0,0,0-2.491-.74,7.275,7.275,0,0,0-2.265.358,5.993,5.993,0,0,0-1.89.975l-1.5-2.923a9.062,9.062,0,0,1,2.828-1.281,12.648,12.648,0,0,1,3.39-.45A7.5,7.5,0,0,1-216.1,325.263Zm-3.578,9.933a2.711,2.711,0,0,0,1.181-1.458l0-1.473-2.867,0q-2.571,0-2.574,1.684a1.5,1.5,0,0,0,.628,1.273,2.83,2.83,0,0,0,1.727.471A3.634,3.634,0,0,0-219.682,335.2Z" transform="translate(289.473 -319.608)"/><path class="a" d="M-177.393,326.23l-.021,13.528-3.721-.006,0-1.609A5.2,5.2,0,0,1-183,339.486a5.859,5.859,0,0,1-2.339.462,5.76,5.76,0,0,1-4.222-1.54,6.113,6.113,0,0,1-1.552-4.554l.011-7.644,3.923.006-.011,7.066q0,3.269,2.736,3.273a2.946,2.946,0,0,0,2.265-.915,3.87,3.87,0,0,0,.859-2.727l.01-6.689Z" transform="translate(268.892 -321.029)"/><path class="a" d="M-151.873,314.671l3.923.006-.029,18.658-3.923-.006Z" transform="translate(247.025 -314.594)"/></g><path class="b" d="M-256.173,280.216l-3.33,2.22a15.239,15.239,0,0,0-14.951-12.4h-31.073a15.234,15.234,0,0,0-15.217,15.217v.729h5.467v-.729a9.76,9.76,0,0,1,9.749-9.75h31.073a9.763,9.763,0,0,1,9.08,6.207l-2.452-1.532-2.415,3.863,8.537,5.336,8.058-5.372Z" transform="translate(341.19 -270.037)"/><path class="c" d="M-271.181,367.043v.73a9.761,9.761,0,0,1-9.749,9.75H-312a9.765,9.765,0,0,1-9.625-8.2l3.452,2.158,2.414-3.863-8.537-5.336-8.058,5.372,2.527,3.79,2.726-1.817A15.236,15.236,0,0,0-312,382.99h31.073a15.234,15.234,0,0,0,15.217-15.217v-.73Z" transform="translate(347.667 -321.483)"/></svg>