<svg width="312" height="174" viewBox="0 0 312 174" fill="none" xmlns="http://www.w3.org/2000/svg">
<rect width="312" height="174" fill="#EEEEEE"/>
<path d="M174.545 75.3434H0V97.8766H174.545V75.3434Z" fill="white"/>
<path d="M311.999 75.3434H137.454V97.8766H311.999V75.3434Z" fill="#276EF1"/>
<path d="M248.244 92.7979V80.6647C248.252 78.0855 247.926 75.5161 247.273 73.0208C246.944 71.7208 245.644 68.6355 245.644 68.4621C245.036 67.2172 244.329 66.0232 243.529 64.8915C243.373 64.7355 239.959 59.8475 239.959 59.8475C239.629 59.5182 239.3 59.0329 238.988 58.7035C238.173 57.8889 237.359 57.0742 236.388 56.2596C236.347 56.2596 236.307 56.2431 236.278 56.2139C236.249 56.1846 236.232 56.1449 236.232 56.1036C234.835 55.1228 233.298 54.3574 231.673 53.8329C228.699 52.9315 225.655 52.2764 222.574 51.8743C219.505 51.412 216.404 51.1918 213.3 51.2156H95.9373C92.5401 51.2378 89.1582 51.6744 85.8667 52.5156L72.3815 56.0862C72.3815 56.0862 65.2229 68.2195 64.9109 69.9528C64.3732 71.9247 63.9907 73.9357 63.7669 75.9674V97.2006C63.9115 99.2433 64.2954 101.262 64.9109 103.215C65.3962 104.844 72.3815 116.874 72.3815 116.874L85.7107 120.444C89.0022 121.286 92.3841 121.722 95.7813 121.744H212.971C216.075 121.768 219.175 121.548 222.244 121.086C222.525 121.113 222.808 121.059 223.059 120.93C225.912 120.432 228.736 119.778 231.517 118.971C233.156 118.48 234.698 117.712 236.076 116.7C236.117 116.7 236.157 116.684 236.186 116.655C236.216 116.625 236.232 116.586 236.232 116.544C237.214 115.861 238.09 115.038 238.832 114.1C239.161 113.771 239.491 113.286 239.803 112.956C239.803 112.956 243.373 108.086 243.373 107.912C244.173 106.781 244.88 105.587 245.488 104.342C245.625 103.95 245.787 103.568 245.973 103.198C246.504 102.097 246.889 100.932 247.117 99.7312C247.919 97.5098 248.301 95.1589 248.244 92.7979Z" fill="white"/>
<path d="M153.97 54.9249L146.811 52.8103L145.598 65.8275L150.798 63.3835L153.97 54.9249Z" fill="white"/>
<path d="M85.211 109.542C82.1538 102.317 80.5785 94.5509 80.5785 86.7054C80.5785 78.8599 82.1538 71.0942 85.211 63.8689V63.7129C85.4813 63.1391 85.9237 62.6638 86.4767 62.3531C87.0297 62.0425 87.6657 61.9119 88.2964 61.9796C93.4963 62.4649 106.184 63.6089 110.726 64.2502C111.068 64.2781 111.4 64.3798 111.699 64.5485C111.998 64.7171 112.257 64.9487 112.458 65.2271C112.659 65.5056 112.798 65.8244 112.864 66.1614C112.93 66.4985 112.921 66.8459 112.84 67.1795V67.3355C110.728 80.0868 110.728 93.0986 112.84 105.85V106.006C112.936 106.673 112.769 107.351 112.375 107.898C111.98 108.444 111.389 108.816 110.726 108.935C106.167 109.594 93.4963 110.668 88.2964 111.206C87.6698 111.316 87.0244 111.212 86.4644 110.91C85.9045 110.608 85.4629 110.126 85.211 109.542Z" fill="black"/>
<path d="M191.671 117.03C192.156 117.359 192 118.33 191.342 118.33H128.613C122.38 118.023 116.183 117.205 110.084 115.886C109.935 115.866 109.797 115.797 109.692 115.691C109.586 115.584 109.52 115.445 109.502 115.296C109.484 115.147 109.516 114.997 109.593 114.868C109.67 114.74 109.788 114.64 109.928 114.586C113.186 112.956 120.813 109.871 133.327 109.871H157.213C163.291 109.842 169.35 110.552 175.256 111.986L185.466 114.36C187.656 114.936 189.747 115.836 191.671 117.03Z" fill="black"/>
<path d="M153.969 118.33L146.81 119.959L145.51 107.826L150.797 109.871L153.969 118.33Z" fill="white"/>
<path d="M203.387 112.315L204.687 109.715C210.334 96.4963 210.743 81.6246 205.831 68.1154L203.387 61.1822C203.116 60.6882 202.717 60.2762 202.232 59.9895C201.747 59.7028 201.194 59.552 200.631 59.5528C199.652 59.6328 198.666 59.5804 197.701 59.3969L174.614 65.0821C174.036 65.2371 173.541 65.6125 173.237 66.1277C172.932 66.6429 172.841 67.2569 172.984 67.8381C176.074 80.2206 176.074 93.1726 172.984 105.555C172.859 106.135 172.957 106.741 173.259 107.252C173.561 107.763 174.045 108.141 174.614 108.311L197.701 113.996H200.631C201.203 114.012 201.769 113.862 202.258 113.564C202.747 113.265 203.139 112.832 203.387 112.315Z" fill="black"/>
<path d="M64.8951 103.371C65.051 103.7 65.0511 104.186 65.2244 104.515C65.5842 105.697 66.0184 106.855 66.5244 107.982C67.9676 111.351 70.0049 114.433 72.539 117.082H77.9989C78.201 117.084 78.3989 117.024 78.5659 116.91C78.7329 116.796 78.8609 116.634 78.9327 116.445C79.0045 116.256 79.0166 116.049 78.9674 115.853C78.9182 115.657 78.8101 115.481 78.6576 115.348C74.3243 111.5 64.8951 103.371 64.8951 103.371Z" fill="#FFAFA1"/>
<path d="M64.8951 69.8835C65.051 69.5541 65.0511 69.0688 65.2244 68.7395C65.5842 67.5577 66.0184 66.3998 66.5244 65.2728C67.9676 61.9035 70.0049 58.8212 72.539 56.1729H77.9989C78.201 56.1708 78.3989 56.2308 78.5659 56.3447C78.7329 56.4586 78.8609 56.621 78.9327 56.8099C79.0045 56.9988 79.0166 57.2052 78.9674 57.4013C78.9182 57.5973 78.8101 57.7736 78.6576 57.9062C74.3243 61.5982 64.8951 69.8835 64.8951 69.8835Z" fill="#FFAFA1"/>
<path d="M187.198 54.1276L180.854 41.4571C180.784 41.2974 180.755 41.1229 180.771 40.9494C180.786 40.7759 180.845 40.609 180.941 40.464C181.038 40.3191 181.169 40.2008 181.324 40.1199C181.478 40.039 181.65 39.9981 181.824 40.0011H183.28C184.288 39.9815 185.284 40.2255 186.168 40.7089C187.053 41.1923 187.796 41.8983 188.324 42.7571L191.583 47.6277C192.196 48.5418 192.533 49.6128 192.554 50.713V54.769L187.198 54.1276Z" fill="white"/>
<path d="M187.285 119.127L180.941 131.798C180.871 131.957 180.843 132.132 180.858 132.305C180.874 132.479 180.932 132.646 181.029 132.791C181.125 132.936 181.257 133.054 181.411 133.135C181.565 133.216 181.738 133.257 181.912 133.254H183.368C184.376 133.273 185.371 133.029 186.256 132.546C187.14 132.062 187.884 131.356 188.412 130.498L191.67 125.627C192.283 124.713 192.62 123.642 192.641 122.542V118.486L187.285 119.127Z" fill="white"/>
<path d="M245.956 103.701L241.242 104.03C239.855 104.256 238.611 105.015 237.775 106.144L230.842 116.059C230.24 116.816 229.46 117.411 228.571 117.792L224.186 119.248C223.907 119.333 223.662 119.505 223.487 119.739C223.313 119.973 223.217 120.257 223.215 120.548V121.294C226.068 120.796 228.892 120.142 231.674 119.335C233.312 118.845 234.854 118.077 236.232 117.064C236.253 117.064 236.273 117.06 236.292 117.053C236.311 117.045 236.328 117.033 236.343 117.019C236.357 117.004 236.369 116.987 236.377 116.968C236.384 116.949 236.388 116.929 236.388 116.908C237.37 116.225 238.246 115.402 238.988 114.464C239.318 114.135 239.647 113.65 239.959 113.32C239.959 113.32 243.53 108.45 243.53 108.276C244.329 107.145 245.036 105.951 245.644 104.706C245.471 104.827 245.644 104.342 245.956 103.701Z" fill="#FFAFA1"/>
<path d="M245.956 69.5542L241.242 69.2942C239.855 69.0681 238.611 68.3093 237.775 67.1795L230.842 57.265C230.24 56.5082 229.46 55.9126 228.571 55.5316L224.186 54.0756C223.907 53.9907 223.662 53.8187 223.487 53.5849C223.313 53.351 223.217 53.0675 223.215 52.7757V51.961C226.068 52.4589 228.892 53.1127 231.674 53.9197C233.312 54.4101 234.854 55.1781 236.232 56.1903C236.274 56.1903 236.313 56.2067 236.343 56.236C236.372 56.2652 236.388 56.3049 236.388 56.3463C237.37 57.0293 238.246 57.8528 238.988 58.7903C239.318 59.1196 239.647 59.6049 239.959 59.9343C239.959 59.9343 243.53 64.8049 243.53 64.9782C244.329 66.1099 245.036 67.304 245.644 68.5489C245.471 68.4275 245.644 68.9129 245.956 69.5542Z" fill="#FFAFA1"/>
<path d="M191.671 56.069C192.156 55.7396 192 54.769 191.342 54.769H128.613C122.381 55.0588 116.184 55.8588 110.084 57.161C109.935 57.1808 109.797 57.2494 109.692 57.3562C109.586 57.4629 109.52 57.6016 109.502 57.7505C109.484 57.8994 109.516 58.05 109.593 58.1786C109.67 58.3072 109.788 58.4065 109.928 58.461C113.186 60.0903 120.813 63.1756 133.327 63.1756H157.213C163.291 63.2043 169.35 62.4942 175.256 61.0609L185.466 58.6689C187.675 58.1871 189.778 57.306 191.671 56.069Z" fill="black"/>
<path d="M153.97 54.9249L146.811 53.1916L145.598 65.4982L150.798 63.3835L153.97 54.9249Z" fill="white"/>
</svg>
