<svg width="312" height="174" viewBox="0 0 312 174" fill="none" xmlns="http://www.w3.org/2000/svg">
<rect width="312" height="174" fill="#EEEEEE"/>
<path d="M233.166 92.0741C232.138 92.0673 231.154 91.6559 230.427 90.9291C229.701 90.2023 229.289 89.2185 229.282 88.1906V65.944C229.289 64.9161 229.701 63.9323 230.427 63.2055C231.154 62.4787 232.138 62.0673 233.166 62.0605C234.194 62.0673 235.178 62.4787 235.904 63.2055C236.631 63.9323 237.043 64.9161 237.049 65.944V88.1952C237.041 89.2223 236.629 90.2049 235.903 90.9307C235.176 91.6566 234.193 92.0673 233.166 92.0741Z" fill="#276EF1"/>
<path d="M129.619 92.0741C128.591 92.0673 127.607 91.6559 126.88 90.9291C126.154 90.2023 125.742 89.2185 125.736 88.1906V65.944C125.742 64.9161 126.154 63.9323 126.88 63.2055C127.607 62.4787 128.591 62.0673 129.619 62.0605C130.647 62.0673 131.631 62.4787 132.357 63.2055C133.084 63.9323 133.496 64.9161 133.502 65.944V88.1952C133.494 89.2223 133.083 90.2049 132.356 90.9307C131.629 91.6566 130.646 92.0673 129.619 92.0741Z" fill="#276EF1"/>
<path d="M181.367 122.915C180.339 122.909 179.355 122.497 178.629 121.77C177.902 121.044 177.49 120.06 177.484 119.032V96.7853C177.49 95.7575 177.902 94.7737 178.629 94.0468C179.355 93.32 180.339 92.9087 181.367 92.9019C182.395 92.9087 183.379 93.32 184.105 94.0468C184.832 94.7737 185.244 95.7575 185.25 96.7853V119.037C185.251 119.546 185.151 120.051 184.956 120.523C184.761 120.994 184.474 121.422 184.114 121.782C183.753 122.142 183.325 122.428 182.853 122.622C182.382 122.817 181.877 122.916 181.367 122.915Z" fill="#276EF1"/>
<path d="M61.4653 95.9555H27.8835C26.8564 95.9487 25.8733 95.538 25.1466 94.8122C24.4199 94.0863 24.008 93.1037 24 92.0766C24.0068 91.0488 24.4182 90.065 25.145 89.3382C25.8718 88.6113 26.8556 88.2 27.8835 88.1932H61.4653C62.4931 88.2 63.4769 88.6113 64.2038 89.3382C64.9306 90.065 65.3419 91.0488 65.3487 92.0766C65.3491 92.5865 65.2489 93.0915 65.0539 93.5626C64.8588 94.0337 64.5727 94.4616 64.2119 94.822C63.8512 95.1823 63.4229 95.4679 62.9515 95.6624C62.4802 95.8569 61.9751 95.9565 61.4653 95.9555Z" fill="#276EF1"/>
<path d="M272.595 95.9555H69.2297C68.2018 95.9486 67.218 95.5373 66.4912 94.8105C65.7644 94.0837 65.353 93.0999 65.3462 92.072C65.353 91.0442 65.7644 90.0603 66.4912 89.3335C67.218 88.6067 68.2018 88.1954 69.2297 88.1885H272.543C273.571 88.1954 274.555 88.6067 275.282 89.3335C276.008 90.0603 276.42 91.0442 276.427 92.072C276.433 92.5795 276.339 93.0832 276.15 93.5541C275.96 94.0249 275.679 94.4533 275.323 94.8146C274.966 95.1759 274.542 95.4628 274.073 95.6586C273.605 95.8545 273.103 95.9554 272.595 95.9555Z" fill="#E2E2E2"/>
<path d="M96.4461 92.2795L45.474 92.1262L45.4229 106.978C45.4245 107.924 45.8012 108.832 46.4705 109.501C47.1398 110.17 48.0471 110.547 48.9936 110.549C49.7677 110.538 50.5379 110.661 51.2706 110.911C52.0171 111.129 52.7182 111.479 53.3406 111.946L56.6006 114.223C56.6517 114.223 56.6517 114.274 56.7028 114.274C57.877 115.05 59.1249 115.709 60.4284 116.24C62.2596 116.966 64.2032 117.369 66.1724 117.43H74.1437C76.5159 117.447 78.8577 116.897 80.9745 115.826C82.333 115.139 83.6017 114.287 84.7522 113.291L85.8391 112.307C87.0101 111.233 88.5445 110.641 90.1339 110.651C91.7874 110.657 93.3755 110.006 94.5494 108.842C95.7233 107.677 96.3869 106.094 96.3944 104.441L96.4461 92.2795Z" fill="#E2E2E2"/>
<path d="M87.7521 81.6204C89.1066 81.6327 90.4384 81.9699 91.6356 82.6035C92.9915 83.2848 94.1363 84.3224 94.9473 85.605C95.0495 85.7072 95.1006 85.9157 95.258 86.0189C95.4159 86.2665 95.5542 86.526 95.6719 86.7951C95.7538 87.0288 95.8579 87.2541 95.9825 87.4681C96.0336 87.5703 96.0336 87.7266 96.0847 87.8303C96.3811 88.7135 96.5211 89.6415 96.4986 90.5728V94.0914C96.47 95.0188 96.3311 95.9394 96.0847 96.8339C96.0336 96.9361 96.0336 97.0924 95.9825 97.1962C95.9227 97.4382 95.8172 97.6666 95.6719 97.8691C95.5697 98.1798 95.3612 98.3867 95.258 98.6453C95.1893 98.8063 95.0827 98.9483 94.9473 99.0592C94.1063 100.342 92.9232 101.363 91.5319 102.009C90.3199 102.596 88.995 102.914 87.6484 102.94H87.5462L54.738 102.838C53.7046 102.814 52.6786 102.657 51.6849 102.372C50.6919 102.056 49.7632 101.565 48.9425 100.923H48.8914C47.8385 100.121 46.9832 99.0878 46.3909 97.9037C45.7987 96.7197 45.4852 95.4158 45.4744 94.0919V90.2626C45.4664 88.9302 45.7769 87.6151 46.3799 86.427C46.983 85.2388 47.8612 84.2119 48.9414 83.4318H48.9925C49.8273 82.8244 50.7529 82.3529 51.735 82.0348C52.7239 81.7287 53.7529 81.5718 54.7881 81.5693L87.5963 81.6715L87.7521 81.6204Z" fill="white"/>
<path d="M81.1289 81.6204L79.835 78.4119C79.7228 78.1235 79.5221 77.8781 79.2618 77.7108C79.0015 77.5434 78.6949 77.4628 78.3859 77.4804C78.1472 77.4823 77.9121 77.5387 77.6985 77.6454C77.485 77.752 77.2987 77.9061 77.1538 78.0959C77.009 78.2857 76.9095 78.506 76.8629 78.7401C76.8164 78.9743 76.824 79.2159 76.8851 79.4467L77.1958 80.5851C77.3112 80.8939 77.5151 81.1618 77.7821 81.3552C78.0491 81.5485 78.3672 81.6587 78.6966 81.672L81.1289 81.6204Z" fill="white"/>
<path d="M85.5791 83.069L56.8077 82.9668C63.8931 85.96 71.7658 86.5418 79.2143 84.6229L85.5791 83.069Z" fill="#24313A"/>
<path d="M81.0765 102.889L79.7826 106.097C79.6615 106.38 79.4589 106.619 79.2006 106.785C78.9424 106.951 78.6404 107.036 78.3335 107.029C78.0948 107.027 77.8597 106.971 77.6461 106.864C77.4326 106.757 77.2463 106.603 77.1014 106.414C76.9566 106.224 76.8571 106.003 76.8105 105.769C76.764 105.535 76.7716 105.293 76.8327 105.063L77.1434 103.924C77.2303 103.598 77.427 103.312 77.7004 103.114C77.9738 102.916 78.3072 102.818 78.6442 102.837L81.0765 102.889Z" fill="white"/>
<path d="M87.7005 86.1232V98.6458C87.6693 98.8941 87.5823 99.1321 87.446 99.3419C87.3098 99.5518 87.1278 99.728 86.9137 99.8575C86.6996 99.987 86.4589 100.066 86.2098 100.09C85.9607 100.113 85.7095 100.079 85.4752 99.9918L77.2994 97.4563V87.0031L85.5263 84.5182C85.7614 84.4415 86.0107 84.418 86.256 84.4496C86.5013 84.4812 86.7365 84.5669 86.9446 84.7007C87.1526 84.8344 87.3283 85.0128 87.4589 85.2229C87.5895 85.4329 87.6716 85.6694 87.6995 85.9152L87.7005 86.1232Z" fill="#24313A"/>
<path d="M85.5267 101.492L56.7553 101.441C63.8583 98.5078 71.7223 97.9629 79.1619 99.8886L85.5267 101.492Z" fill="#24313A"/>
<path d="M52.0462 96.8349C52.7192 99.215 54.6338 100.613 56.5485 99.9396L61.62 98.1287L61.6711 86.3301L56.6001 84.465C54.6854 83.792 52.7166 85.0859 52.0978 87.5697C51.2789 90.6007 51.2613 93.7925 52.0467 96.8323" fill="#24313A"/>
<path d="M56.8077 81.5693C57.6848 81.0452 58.6839 80.7598 59.7055 80.7415H65.5532C66.5758 80.7528 67.5767 81.0387 68.451 81.5693H56.8077Z" fill="white"/>
<path d="M56.7553 102.838C57.6324 103.362 58.6315 103.647 59.6531 103.666H65.5008C66.5234 103.654 67.5243 103.369 68.3986 102.838H56.7553Z" fill="white"/>
<path d="M129.616 98.8527C133.36 98.8527 136.395 95.8178 136.395 92.074C136.395 88.3303 133.36 85.2953 129.616 85.2953C125.873 85.2953 122.838 88.3303 122.838 92.074C122.838 95.8178 125.873 98.8527 129.616 98.8527Z" fill="#276EF1"/>
<path d="M181.364 98.8527C185.108 98.8527 188.143 95.8178 188.143 92.074C188.143 88.3303 185.108 85.2953 181.364 85.2953C177.62 85.2953 174.585 88.3303 174.585 92.074C174.585 95.8178 177.62 98.8527 181.364 98.8527Z" fill="#276EF1"/>
<path d="M233.163 98.8527C236.907 98.8527 239.942 95.8178 239.942 92.074C239.942 88.3303 236.907 85.2953 233.163 85.2953C229.419 85.2953 226.384 88.3303 226.384 92.074C226.384 95.8178 229.419 98.8527 233.163 98.8527Z" fill="#276EF1"/>
<path d="M175.775 128.297C172.362 129.746 169.609 132.412 168.05 135.776C166.491 139.14 166.236 142.963 167.336 146.504C168.436 150.045 170.812 153.052 174.003 154.94C177.194 156.829 180.972 157.465 184.606 156.726C188.239 155.986 191.469 153.924 193.668 150.938C195.867 147.953 196.878 144.257 196.507 140.568C196.135 136.878 194.407 133.459 191.657 130.971C188.907 128.484 185.331 127.107 181.623 127.107C179.617 127.142 177.635 127.546 175.775 128.297Z" fill="#276EF1"/>
<path d="M176.086 149.41C170.704 146.461 169.359 139.94 172.774 135.024C176.293 129.953 183.124 129.125 187.988 133.058C188.609 133.576 189.178 134.145 189.747 134.662C188.454 135.231 187.057 134.713 185.762 134.973C184.83 135.18 183.795 135.387 184.106 136.577C184.571 138.181 184.157 139.681 183.952 141.286C183.487 145.84 185.505 147.237 189.903 145.84C190.524 145.633 191.3 145.789 192.025 145.789C191.923 146.772 191.766 147.703 191.663 148.686C191.456 151.74 190.99 152.153 187.885 151.791C184.263 151.17 182.71 148.79 182.452 145.323C182.277 144.346 182.052 143.379 181.779 142.425C181.468 141.183 180.848 140.252 179.502 140.096C179.095 140.047 178.683 140.131 178.328 140.336C177.974 140.542 177.695 140.857 177.536 141.235C176.915 142.529 177.383 143.512 178.416 144.288C179.399 145.012 179.503 145.737 178.674 146.772C177.898 147.806 177.381 148.945 176.087 149.411" fill="#060606"/>
<path d="M176.086 149.41C177.38 148.945 177.897 147.806 178.725 146.771C179.553 145.788 179.45 145.063 178.467 144.287C177.432 143.511 176.966 142.528 177.587 141.234C177.746 140.857 178.025 140.541 178.379 140.336C178.734 140.13 179.146 140.046 179.553 140.096C180.899 140.249 181.519 141.183 181.83 142.424C182.103 143.378 182.328 144.345 182.503 145.322C182.813 148.789 184.262 151.17 187.936 151.791C187.108 153.395 188.194 158.932 186.849 159.605C185.193 160.432 184.314 160.277 182.244 160.277C181.519 160.277 179.553 159.915 178.828 159.811C175.827 159.449 176.086 156.344 176.137 153.912C176.137 152.463 176.086 150.911 176.086 149.41" fill="#99644C"/>
<path d="M192.024 145.84C191.3 145.84 190.575 145.686 189.903 145.891C185.504 147.288 183.434 145.84 183.952 141.337C184.105 139.733 184.521 138.284 184.105 136.628C183.743 135.438 184.881 135.231 185.761 135.024C187.055 134.765 188.452 135.282 189.747 134.713C191.144 136.524 192.179 138.439 191.817 140.871C191.61 141.958 192.179 142.734 192.8 143.51C193.783 144.649 193.214 145.373 192.024 145.839" fill="#99644C"/>
<path d="M129.616 25.6821C132.646 25.6821 135.607 26.5804 138.126 28.2635C140.645 29.9466 142.608 32.3388 143.767 35.1376C144.927 37.9365 145.23 41.0163 144.639 43.9875C144.048 46.9588 142.589 49.6881 140.447 51.8302C138.305 53.9724 135.576 55.4312 132.604 56.0222C129.633 56.6132 126.553 56.3099 123.755 55.1506C120.956 53.9912 118.563 52.028 116.88 49.5091C115.197 46.9902 114.299 44.0288 114.299 40.9993C114.299 38.9878 114.695 36.9959 115.464 35.1374C116.234 33.2789 117.362 31.5903 118.785 30.1679C120.207 28.7456 121.896 27.6173 123.754 26.8476C125.613 26.0779 127.605 25.6819 129.616 25.6821Z" fill="#276EF1"/>
<path d="M139.346 43.3279C140.277 42.6549 140.329 42.1378 139.604 41.2579C139.181 40.8235 138.816 40.3364 138.517 39.8087C138.466 39.7576 138.466 39.6554 138.415 39.6018C138.332 39.4589 138.28 39.3004 138.262 39.1363C138.229 38.957 138.265 38.7719 138.364 38.6187L138.571 38.0494C138.571 37.9983 138.571 37.9983 138.622 37.9472C138.769 37.3718 138.786 36.7709 138.673 36.1879C138.279 34.6091 137.322 33.2284 135.982 32.3044C135.823 32.1864 135.628 32.127 135.43 32.1363C135.232 32.1456 135.043 32.223 134.895 32.3555C134.401 32.6262 134.008 33.0499 133.774 33.5631C133.541 34.0762 133.48 34.6512 133.602 35.2017C133.644 35.5251 133.599 35.8539 133.471 36.1541C133.344 36.4543 133.139 36.7151 132.877 36.9094C132.353 37.3127 131.852 37.7446 131.376 38.2032C130.393 39.1864 130.289 39.9626 130.962 41.2048C131.428 42.0325 131.997 42.8087 132.463 43.6886C133.239 45.0857 132.981 46.1725 131.532 47.0003C130.79 47.4189 130.01 47.7654 129.203 48.0351C127.288 48.8629 126.15 50.4152 126.823 52.6922C127.15 53.9229 127.273 55.1993 127.185 56.4699C127.163 58.0999 126.578 59.6723 125.529 60.92C125.198 61.2172 124.919 61.5667 124.701 61.9547C125.322 62.4724 125.529 63.3518 126.254 63.8178C127.319 63.7681 128.376 63.6121 129.41 63.3523C131.118 62.783 132.412 61.8515 132.826 60.0406C132.554 59.5434 132.378 58.9992 132.308 58.4366C132.058 56.4526 132.146 54.4406 132.567 52.4857C132.72 51.6579 132.878 51.5542 133.705 51.5542C134.999 51.5031 136.241 51.8649 137.535 51.6053C138.673 51.3983 139.501 50.4668 139.191 49.639C139.043 49.3696 138.993 49.0574 139.05 48.7554C139.107 48.4535 139.266 48.1805 139.501 47.9829C139.587 47.918 139.658 47.8358 139.711 47.7417C139.763 47.6475 139.795 47.5435 139.804 47.4363C139.814 47.3291 139.801 47.2211 139.767 47.1192C139.732 47.0172 139.676 46.9237 139.604 46.8445C139.501 46.6912 139.345 46.4822 139.45 46.2752C139.864 45.6544 139.657 45.1368 139.297 44.6191C138.883 44.1015 138.831 43.6876 139.348 43.3253" fill="#FFE2E0"/>
<path d="M108.347 58.7488C108.398 57.921 108.194 57.1448 108.296 56.3165C108.71 52.5388 110.884 50.2103 114.299 48.9165C115.093 48.615 115.871 48.2696 116.627 47.8817C117.766 47.2088 118.749 46.381 119.059 45.0356C119.422 43.4316 118.697 41.7239 118.645 40.0678C118.623 38.3702 119.034 36.695 119.84 35.2008C120.646 33.7065 121.82 32.4428 123.251 31.5293C130.91 27.1823 135.929 32.4092 135.929 32.4092C135.929 32.4092 134.428 32.6677 134.118 33.03C133.84 33.332 133.638 33.6965 133.53 34.0928C133.422 34.489 133.411 34.9054 133.497 35.3069C133.539 35.6303 133.494 35.9591 133.367 36.2593C133.24 36.5595 133.034 36.8203 132.773 37.0147C132.249 37.418 131.748 37.8499 131.272 38.3085C130.289 39.2916 130.185 40.0678 130.858 41.31C131.323 42.1378 131.893 42.914 132.359 43.7939C133.135 45.1909 132.876 46.2778 131.427 47.1055C130.686 47.5241 129.906 47.8706 129.099 48.1403C127.184 48.9681 126.046 50.5204 126.718 52.7974C127.046 54.0282 127.168 55.3045 127.081 56.5751C127.059 58.2052 126.474 59.7775 125.425 61.0252C125.094 61.3224 124.814 61.672 124.597 62.06C124.131 62.4223 123.717 62.7329 123.303 63.0947C122.35 63.7439 121.346 64.315 120.302 64.8024C120.095 64.8535 119.888 64.8535 119.681 64.9046C117.559 65.4222 115.491 65.5776 113.419 64.6977C111.954 64.0827 110.684 63.0811 109.745 61.7999C109.694 61.6466 109.694 61.4892 109.538 61.4892C109.589 61.4381 109.538 61.387 109.487 61.387C109.281 60.8117 109.021 60.2571 108.711 59.7309C108.669 59.633 108.651 59.5264 108.66 59.4202C108.643 59.1653 108.531 58.9259 108.347 58.7488Z" fill="#060203"/>
<path d="M226.54 53.0044L233.63 53.0554C232.885 53.952 232.514 55.1014 232.595 56.2644C232.802 58.1275 234.665 60.4545 234.665 60.4545L223.229 61.0252L223.28 52.5905L226.54 53.0044Z" fill="#C4E3C3"/>
<path d="M210.291 14H255.311V65.2301H210.291V14Z" fill="#276EF1"/>
<path d="M223.176 52.9527C223.125 52.8505 223.023 52.8505 222.969 52.7994C220.279 51.9716 218.779 50.0049 218.571 47.1592C218.457 45.3159 218.889 43.4798 219.813 41.8807C221.595 38.5896 223.845 35.5735 226.491 32.9263C229.233 30.1317 232.597 29.5109 236.271 30.7531C237.364 31.0529 238.383 31.5753 239.265 32.2875C240.146 32.9997 240.871 33.8865 241.394 34.892C241.522 35.072 241.577 35.294 241.547 35.5129C240.309 36.7016 238.825 37.6035 237.2 38.1547C236.113 38.5686 234.923 38.9308 233.991 39.7586C233.733 39.9656 233.681 39.8097 233.578 39.6053C233.439 39.3822 233.25 39.1953 233.025 39.0603C232.8 38.9252 232.546 38.846 232.284 38.8292C230.938 38.727 230.265 39.9676 230.369 41.2093C230.424 41.8024 230.604 42.377 230.899 42.8946C231.193 43.4122 231.595 43.861 232.077 44.2108C232.174 44.2702 232.254 44.354 232.308 44.4539C232.363 44.5538 232.39 44.6663 232.387 44.7801C232.557 45.804 232.501 46.8526 232.224 47.8528C231.947 48.853 231.455 49.7807 230.783 50.5715C229.664 51.8492 228.156 52.7225 226.491 53.0565C226.077 53.1587 225.663 52.9543 225.301 53.2098C224.601 53.0696 223.892 52.9831 223.179 52.9512" fill="#060203"/>
<path d="M232.388 53.0565C230.473 53.0565 228.504 53.0054 226.592 53.0054C228.242 52.6709 229.734 51.7971 230.833 50.5215C231.506 49.7302 231.998 48.8017 232.275 47.8008C232.552 46.7998 232.607 45.7505 232.437 44.7259C232.398 44.5075 232.289 44.3077 232.126 44.1567C231.644 43.8069 231.243 43.3581 230.948 42.8405C230.654 42.3228 230.473 41.7483 230.419 41.1552C230.317 39.8614 230.988 38.6713 232.333 38.775C232.596 38.7914 232.85 38.8703 233.076 39.0051C233.301 39.14 233.491 39.3269 233.63 39.5502C233.732 39.7035 233.837 39.8609 234.044 39.7035C235.012 38.9866 236.098 38.4438 237.252 38.0995C238.871 37.5374 240.352 36.6386 241.598 35.4623C241.737 35.6343 241.837 35.8345 241.891 36.0489C241.944 36.2634 241.951 36.4869 241.909 36.704C241.858 37.5341 241.994 38.3652 242.307 39.1356C242.621 39.9059 243.104 40.5959 243.72 41.1542C243.902 41.2634 244.045 41.4272 244.129 41.6223C244.212 41.8175 244.232 42.0339 244.186 42.241C244.086 42.4437 243.931 42.6143 243.739 42.7332C243.546 42.8522 243.325 42.9148 243.099 42.914C242.96 42.9197 242.824 42.9585 242.703 43.0273C242.583 43.096 242.48 43.1926 242.404 43.309C242.328 43.4255 242.281 43.5584 242.267 43.6967C242.253 43.835 242.272 43.9747 242.323 44.1041C242.427 44.365 242.454 44.6509 242.399 44.9266C242.343 45.2023 242.209 45.456 242.012 45.6565C241.952 45.7277 241.908 45.8104 241.882 45.8994C241.855 45.9884 241.847 46.0819 241.859 46.1741C241.853 46.4122 241.776 46.6431 241.638 46.837C241.499 47.0308 241.306 47.1785 241.082 47.2609C240.944 47.305 240.827 47.3971 240.751 47.5206C240.675 47.6441 240.646 47.7908 240.669 47.9339C240.675 48.6311 240.437 49.3085 239.996 49.8486C239.78 50.1158 239.502 50.3262 239.186 50.4615C238.871 50.5968 238.527 50.6528 238.185 50.6247C237.249 50.5899 236.316 50.5036 235.39 50.3662C234.847 50.3377 234.307 50.4694 233.837 50.7449C233.368 51.0204 232.99 51.4276 232.75 51.916C232.597 52.3815 232.491 52.6922 232.388 53.0545" fill="#FFE2E0"/>
</svg>
